<svg xmlns="http://www.w3.org/2000/svg" viewBox="0 0 120 120" width="120" height="120">
  <g fill="currentColor">
    <circle cx="60" cy="60" r="3"/>
    <circle cx="60" cy="60" r="1.4" fill="#fff"/>
  </g>
  <g fill="currentColor">
    <circle cx="60" cy="40" r="2"/>
    <circle cx="60" cy="80" r="2"/>
    <circle cx="40" cy="60" r="2"/>
    <circle cx="80" cy="60" r="2"/>
    <circle cx="46" cy="46" r="1.6"/>
    <circle cx="74" cy="46" r="1.6"/>
    <circle cx="46" cy="74" r="1.6"/>
    <circle cx="74" cy="74" r="1.6"/>
  </g>
  <g fill="currentColor" opacity="0.7">
    <circle cx="60" cy="22" r="1.4"/>
    <circle cx="60" cy="98" r="1.4"/>
    <circle cx="22" cy="60" r="1.4"/>
    <circle cx="98" cy="60" r="1.4"/>
    <circle cx="33" cy="33" r="1.2"/>
    <circle cx="87" cy="33" r="1.2"/>
    <circle cx="33" cy="87" r="1.2"/>
    <circle cx="87" cy="87" r="1.2"/>
  </g>
  <g fill="none" stroke="currentColor" stroke-width="0.7" opacity="0.6">
    <circle cx="60" cy="60" r="14"/>
    <circle cx="60" cy="60" r="28"/>
  </g>
</svg>
