<svg xmlns="http://www.w3.org/2000/svg" viewBox="0 0 200 200" width="200" height="200">
  <g fill="none" stroke="currentColor" stroke-width="1.4" stroke-linecap="round">
    <path d="M10 190 Q10 80 80 30 Q140 5 190 10"/>
    <path d="M16 190 Q16 86 84 36 Q142 14 190 18"/>
    <path d="M40 130 Q60 110 80 130 Q70 155 40 130 Z"/>
    <path d="M75 80 Q100 65 125 80 Q110 105 75 80 Z"/>
    <path d="M100 40 Q130 42 138 70 Q136 90 116 92 Q98 90 96 72 Q96 56 100 40 Z"/>
    <path d="M50 165 Q30 165 30 145"/>
    <path d="M165 55 Q175 35 155 28"/>
  </g>
  <g fill="currentColor">
    <circle cx="146" cy="50" r="2.6"/>
    <circle cx="154" cy="58" r="1.8"/>
    <circle cx="138" cy="58" r="1.8"/>
    <circle cx="146" cy="66" r="1.8"/>
    <circle cx="146" cy="42" r="1.8"/>
    <circle cx="146" cy="54" r="1.2" fill="#fff"/>
    <circle cx="28" cy="170" r="1.8"/>
    <circle cx="170" cy="28" r="1.8"/>
    <circle cx="60" cy="118" r="1.4"/>
    <circle cx="92" cy="92" r="1.4"/>
  </g>
</svg>
